<svg width="59" height="59" viewBox="0 0 59 59" fill="none" xmlns="http://www.w3.org/2000/svg">
    <circle cx="29.5" cy="29.5" r="29.5" fill="url(#paint0_linear_0_1)"/>
    <circle cx="29.5" cy="29.5" r="29.5" fill="#4254F8"/>
    <path d="M22.8971 42.408C20.9478 42.408 19.2024 41.932 17.6611 40.98C16.1198 40.0053 14.9071 38.6 14.0231 36.764C13.1391 34.928 12.6971 32.7067 12.6971 30.1C12.6971 27.4933 13.1391 25.272 14.0231 23.436C14.9071 21.6 16.1198 20.206 17.6611 19.254C19.2024 18.2793 20.9478 17.792 22.8971 17.792C24.8691 17.792 26.6144 18.2793 28.1331 19.254C29.6744 20.206 30.8871 21.6 31.7711 23.436C32.6551 25.272 33.0971 27.4933 33.0971 30.1C33.0971 32.7067 32.6551 34.928 31.7711 36.764C30.8871 38.6 29.6744 40.0053 28.1331 40.98C26.6144 41.932 24.8691 42.408 22.8971 42.408ZM22.8971 37.75C23.8264 37.75 24.6311 37.4893 25.3111 36.968C26.0138 36.4467 26.5578 35.6193 26.9431 34.486C27.3511 33.3527 27.5551 31.8907 27.5551 30.1C27.5551 28.3093 27.3511 26.8473 26.9431 25.714C26.5578 24.5807 26.0138 23.7533 25.3111 23.232C24.6311 22.7107 23.8264 22.45 22.8971 22.45C21.9904 22.45 21.1858 22.7107 20.4831 23.232C19.8031 23.7533 19.2591 24.5807 18.8511 25.714C18.4658 26.8473 18.2731 28.3093 18.2731 30.1C18.2731 31.8907 18.4658 33.3527 18.8511 34.486C19.2591 35.6193 19.8031 36.4467 20.4831 36.968C21.1858 37.4893 21.9904 37.75 22.8971 37.75ZM39.3125 42V20.24L41.6925 22.62H34.5525V18.2H44.8205V42H39.3125Z" fill="#F6F6F6"/>
    <defs>
        <linearGradient id="paint0_linear_0_1" x1="29.5" y1="10.7273" x2="29.5" y2="59" gradientUnits="userSpaceOnUse">
            <stop stop-color="#FF734F"/>
            <stop offset="1" stop-color="#E83C11"/>
        </linearGradient>
    </defs>
</svg>
