<svg width="59" height="59" viewBox="0 0 59 59" fill="none" xmlns="http://www.w3.org/2000/svg">
    <circle cx="29.5" cy="29.5" r="29.5" fill="url(#paint0_linear_0_1)"/>
    <circle cx="29.5" cy="29.5" r="29.5" fill="#4254F8"/>
    <path d="M19.527 42.408C17.5776 42.408 15.8323 41.932 14.291 40.98C12.7496 40.0053 11.537 38.6 10.653 36.764C9.76898 34.928 9.32698 32.7067 9.32698 30.1C9.32698 27.4933 9.76898 25.272 10.653 23.436C11.537 21.6 12.7496 20.206 14.291 19.254C15.8323 18.2793 17.5776 17.792 19.527 17.792C21.499 17.792 23.2443 18.2793 24.763 19.254C26.3043 20.206 27.517 21.6 28.401 23.436C29.285 25.272 29.727 27.4933 29.727 30.1C29.727 32.7067 29.285 34.928 28.401 36.764C27.517 38.6 26.3043 40.0053 24.763 40.98C23.2443 41.932 21.499 42.408 19.527 42.408ZM19.527 37.75C20.4563 37.75 21.261 37.4893 21.941 36.968C22.6436 36.4467 23.1876 35.6193 23.573 34.486C23.981 33.3527 24.185 31.8907 24.185 30.1C24.185 28.3093 23.981 26.8473 23.573 25.714C23.1876 24.5807 22.6436 23.7533 21.941 23.232C21.261 22.7107 20.4563 22.45 19.527 22.45C18.6203 22.45 17.8156 22.7107 17.113 23.232C16.433 23.7533 15.889 24.5807 15.481 25.714C15.0956 26.8473 14.903 28.3093 14.903 30.1C14.903 31.8907 15.0956 33.3527 15.481 34.486C15.889 35.6193 16.433 36.4467 17.113 36.968C17.8156 37.4893 18.6203 37.75 19.527 37.75ZM32.0663 42V38.43L41.2463 29.76C41.9717 29.1027 42.5043 28.5133 42.8443 27.992C43.1843 27.4707 43.411 26.9947 43.5243 26.564C43.6603 26.1333 43.7283 25.7367 43.7283 25.374C43.7283 24.422 43.3997 23.6967 42.7423 23.198C42.1077 22.6767 41.167 22.416 39.9203 22.416C38.923 22.416 37.9937 22.6087 37.1323 22.994C36.2937 23.3793 35.5797 23.98 34.9903 24.796L30.9783 22.212C31.885 20.852 33.1543 19.7753 34.7863 18.982C36.4183 18.1887 38.2997 17.792 40.4303 17.792C42.1983 17.792 43.7397 18.0867 45.0543 18.676C46.3917 19.2427 47.423 20.0473 48.1483 21.09C48.8963 22.1327 49.2703 23.3793 49.2703 24.83C49.2703 25.6007 49.1683 26.3713 48.9643 27.142C48.783 27.89 48.3977 28.6833 47.8083 29.522C47.2417 30.3607 46.403 31.3013 45.2923 32.344L37.6763 39.518L36.6223 37.512H50.0523V42H32.0663Z" fill="#F6F6F6"/>
    <defs>
        <linearGradient id="paint0_linear_0_1" x1="29.5" y1="10.7273" x2="29.5" y2="59" gradientUnits="userSpaceOnUse">
            <stop stop-color="#FF734F"/>
            <stop offset="1" stop-color="#E83C11"/>
        </linearGradient>
    </defs>
</svg>
