<svg width="59" height="59" viewBox="0 0 59 59" fill="none" xmlns="http://www.w3.org/2000/svg">
    <circle cx="29.5" cy="29.5" r="29.5" fill="url(#paint0_linear_0_1)"/>
    <circle cx="29.5" cy="29.5" r="29.5" fill="#4254F8"/>
    <path d="M19.5934 42.408C17.6441 42.408 15.8987 41.932 14.3574 40.98C12.816 40.0053 11.6034 38.6 10.7194 36.764C9.83538 34.928 9.39338 32.7067 9.39338 30.1C9.39338 27.4933 9.83538 25.272 10.7194 23.436C11.6034 21.6 12.816 20.206 14.3574 19.254C15.8987 18.2793 17.6441 17.792 19.5934 17.792C21.5654 17.792 23.3107 18.2793 24.8294 19.254C26.3707 20.206 27.5834 21.6 28.4674 23.436C29.3514 25.272 29.7934 27.4933 29.7934 30.1C29.7934 32.7067 29.3514 34.928 28.4674 36.764C27.5834 38.6 26.3707 40.0053 24.8294 40.98C23.3107 41.932 21.5654 42.408 19.5934 42.408ZM19.5934 37.75C20.5227 37.75 21.3274 37.4893 22.0074 36.968C22.7101 36.4467 23.2541 35.6193 23.6394 34.486C24.0474 33.3527 24.2514 31.8907 24.2514 30.1C24.2514 28.3093 24.0474 26.8473 23.6394 25.714C23.2541 24.5807 22.7101 23.7533 22.0074 23.232C21.3274 22.7107 20.5227 22.45 19.5934 22.45C18.6867 22.45 17.8821 22.7107 17.1794 23.232C16.4994 23.7533 15.9554 24.5807 15.5474 25.714C15.162 26.8473 14.9694 28.3093 14.9694 30.1C14.9694 31.8907 15.162 33.3527 15.5474 34.486C15.9554 35.6193 16.4994 36.4467 17.1794 36.968C17.8821 37.4893 18.6867 37.75 19.5934 37.75ZM39.8555 42.408C38.2009 42.408 36.5575 42.1927 34.9255 41.762C33.2935 41.3087 31.9109 40.674 30.7775 39.858L32.9195 35.642C33.8262 36.2993 34.8802 36.8207 36.0815 37.206C37.2829 37.5913 38.4955 37.784 39.7195 37.784C41.1022 37.784 42.1902 37.512 42.9835 36.968C43.7769 36.424 44.1735 35.676 44.1735 34.724C44.1735 33.8173 43.8222 33.1033 43.1195 32.582C42.4169 32.0607 41.2835 31.8 39.7195 31.8H37.2035V28.162L43.8335 20.648L44.4455 22.62H31.9675V18.2H48.6275V21.77L42.0315 29.284L39.2435 27.686H40.8415C43.7655 27.686 45.9755 28.3433 47.4715 29.658C48.9675 30.9727 49.7155 32.6613 49.7155 34.724C49.7155 36.0613 49.3642 37.3193 48.6615 38.498C47.9589 39.654 46.8822 40.5947 45.4315 41.32C43.9809 42.0453 42.1222 42.408 39.8555 42.408Z" fill="#F6F6F6"/>
    <defs>
        <linearGradient id="paint0_linear_0_1" x1="29.5" y1="10.7273" x2="29.5" y2="59" gradientUnits="userSpaceOnUse">
            <stop stop-color="#FF734F"/>
            <stop offset="1" stop-color="#E83C11"/>
        </linearGradient>
    </defs>
</svg>
