<svg width="109" height="156" viewBox="0 0 109 156" fill="none" xmlns="http://www.w3.org/2000/svg">
    <path d="M92.5604 97.3848H60.7341V136.561H92.5604V97.3848Z" fill="#FF734F"/>
    <path fill-rule="evenodd" clip-rule="evenodd" d="M51.451 59.0666C54.8817 56.4552 63.4944 55.2808 67.1563 57.795C70.7726 60.3199 71.1673 64.4032 72.852 68.1591C74.442 67.4094 77.0683 68.4832 77.5288 69.9577C78.1006 70.6533 78.1263 72.6081 78.5211 73.5431C95.6763 76.2725 98.2811 89.642 100.346 104.821C103.078 120.223 109.279 135.591 106.587 151.441C106.938 151.948 107.215 152.441 107.47 153.027C108.083 154.069 107.294 155.544 106.058 155.487C104.458 155.346 102.874 155.155 101.266 155.095C96.8117 154.94 92.3519 154.959 87.8945 155.016L87.2861 155.023C64.8225 155.303 42.3603 155.853 19.8957 156C19.0807 156.001 18.6818 155.271 18.7906 154.549C19.0097 153.098 19.213 151.647 19.4253 150.195C14.1118 151.598 8.46312 151.951 3.1647 150.343C2.79402 149.965 4.02832 150.17 4.22413 150.113C-0.652069 146.782 0.804142 139.765 1.23608 134.711C3.92202 117.395 4.86884 98.235 15.2463 83.4584C19.7357 77.4278 26.3177 72.653 33.8808 71.5792L34.0907 71.5501C36.3021 71.255 38.7667 71.1603 40.7002 69.9577C42.8749 68.2223 43.8016 65.0158 46.0894 64.9859C46.8448 64.9759 47.8725 65.9317 48.9784 66.58C49.0609 65.1538 49.8302 63.9495 50 62.8432L50.0138 62.7485C50.191 61.4586 49.9483 60.2983 51.451 59.0666ZM88.3209 105.278C83.4995 101.93 71.0452 103.612 70.7601 103.8C70.1318 104.212 69.8616 104.249 69.5217 104.785C69.1868 104.83 68.8518 104.876 68.5169 104.923C67.8462 105.142 68.3432 105.968 69.1186 105.674C68.6524 107.684 70.0254 109.114 70.5714 111.102C70.7493 111.747 70.5781 112.908 70.5714 113.568C70.6246 114.409 71.5546 115.402 71.4 116.245C70.849 119.245 67.8578 122.171 69.1186 125.079C69.9539 126.722 72.4664 127.56 74.1369 128.118C77.5969 129.445 83.6267 128.068 85.6372 125.079C86.7094 123.485 87.9519 119.464 88.5919 118.216L88.7331 116.237C89.083 111.319 89.3939 106.023 88.3209 105.278Z" fill="#EDB98A"/>
    <path fill-rule="evenodd" clip-rule="evenodd" d="M45.9111 64.9956L47.2908 65.8417L55.3041 69.802C56.8575 70.2367 57.6343 70.7578 57.6343 71.3645V77.5497C57.6343 78.3775 59.0919 80.2534 62.0075 83.1773L64.7012 80.4927L64.6413 80.1412C64.3845 78.6269 64.2565 77.6137 64.2565 77.1026C64.2565 76.5524 66.892 74.4638 72.163 70.8359L74.4686 68.6658L74.2225 67.9187C75.6446 67.986 77.1863 68.8612 77.5288 69.9582C78.1006 70.6539 78.1263 72.6087 78.5211 73.5437C95.6763 76.2731 98.2811 89.6426 100.346 104.821C103.078 120.224 109.279 135.592 106.587 151.442C106.938 151.949 107.215 152.441 107.47 153.027C108.083 154.07 107.294 155.545 106.058 155.488C104.458 155.347 102.874 155.156 101.266 155.096C96.8117 154.941 92.3519 154.96 87.8945 155.016L87.2861 155.024C64.8225 155.304 42.3603 155.854 19.8957 156C19.0807 156.002 18.6818 155.271 18.7906 154.55C19.0097 153.099 19.213 151.648 19.4253 150.196C14.1118 151.599 8.46312 151.952 3.1647 150.344C2.79402 149.966 4.02832 150.171 4.22413 150.113C-0.652069 146.782 0.804142 139.766 1.23608 134.712C3.92202 117.395 4.86884 98.2356 15.2463 83.459C19.7357 77.4284 26.3177 72.6536 33.8808 71.5798L34.0907 71.5507L34.302 71.5233C36.458 71.249 38.8281 71.1227 40.7002 69.9582C42.8175 68.2694 43.7518 65.1851 45.9111 64.9956ZM65.1118 101.297C64.3255 101.297 62.7165 102.517 60.2829 104.957L60.0685 105.056C57.127 106.421 55.1783 107.606 54.2225 108.61L54.1885 108.646C53.2229 109.682 51.3107 112.435 48.4521 116.907L44.3123 119.354H42.746L41.6308 127.44L44.3123 133.213L50.3862 131.168L60.2829 128.561L65.962 122.801L69.1652 121.726C68.777 122.848 68.6357 123.966 69.1186 125.08C69.9539 126.722 72.4664 127.56 74.1361 128.119C77.5969 129.446 83.6267 128.069 85.6372 125.08C86.7094 123.485 87.9519 119.464 88.591 118.217L88.7747 115.646C89.1055 110.903 89.3507 105.994 88.3201 105.279C83.4987 101.931 71.0443 103.613 70.7592 103.801C70.1318 104.213 69.8616 104.25 69.5217 104.786L69.3463 104.809L70.3345 103.469L69.9846 103.282C67.4871 101.959 65.8631 101.297 65.1118 101.297ZM69.1186 105.674C68.6723 107.599 69.9115 108.992 70.4975 110.851L68.9998 107.986V105.712C69.0388 105.702 69.0787 105.689 69.1186 105.674Z" fill="white"/>
    <path fill-rule="evenodd" clip-rule="evenodd" d="M45.2496 64.6959C45.5824 64.4017 46.0749 64.7715 45.8634 65.1696C45.3881 66.0639 44.9006 66.9117 44.2627 67.7029C43.8759 68.1816 43.4616 68.6354 43.0418 69.0834C44.1192 70.0159 45.0433 71.172 45.916 72.2566C47.0318 73.6429 48.0869 75.0882 49.3394 76.3574C50.5748 77.6082 51.9408 78.4834 53.5924 79.0668L53.9259 79.1824C55.5851 79.7642 57.3584 80.5512 58.2936 82.1212C58.4781 82.4304 58.1067 82.8135 57.7945 82.6199C56.1694 81.6142 54.26 81.4123 52.4911 80.7474C50.7824 80.1057 49.2927 79.1175 47.9766 77.8567C46.6627 76.5976 45.5595 75.1655 44.4087 73.7634C43.2707 72.3771 42.0455 71.1928 40.6995 70.0201C38.6224 71.4172 36.2514 72.0247 33.8406 72.6215L33.5773 72.6863C31.1636 73.2839 28.7627 73.9779 26.4982 75.0176C24.5016 75.9352 22.5378 77.0298 20.9115 78.5224C19.1851 80.1066 17.8414 82.1287 16.6116 84.1068C13.8607 88.5325 11.9266 93.3813 10.224 98.2882C8.45312 103.392 6.97189 108.599 5.77607 113.868C5.16794 116.547 4.674 119.246 4.268 121.964C4.0726 123.273 3.89906 124.584 3.74655 125.899C3.58382 127.303 3.54642 128.747 3.11556 130.097C2.93089 130.675 2.4948 130.916 2.05821 130.895L1.96961 132.004C1.85201 133.481 1.74238 134.96 1.7054 136.447C1.64398 138.919 1.67182 141.385 1.84976 143.852L1.87494 144.189C2.01474 145.989 2.32716 148.013 3.68181 149.331C5.08466 150.696 7.24201 151.126 9.13282 151.15C13.5367 151.208 17.7758 149.128 21.6728 147.303C25.6862 145.424 29.59 143.338 33.4003 141.076C35.3407 139.923 37.2602 138.733 39.1552 137.508C40.0851 136.906 41.0085 136.296 41.9249 135.674C42.4498 135.318 42.9473 134.928 43.4816 134.612C43.2198 134.368 43.1028 133.985 43.3222 133.651C41.7775 132.31 41.1345 129.918 41.0594 127.983C40.9986 126.421 41.2286 124.863 41.4101 123.316C41.5017 122.535 41.6148 121.757 41.7322 120.98C41.7787 120.673 41.8141 120.345 41.8683 120.02C37.6971 122.312 33.409 124.352 29.0075 126.165C26.7512 127.094 24.4661 127.929 22.1495 128.696L21.68 128.849C19.485 129.568 17.2374 130.247 14.9681 130.657C14.8469 130.679 14.7483 130.5 14.8779 130.443C17.0893 129.468 19.3773 128.645 21.622 127.747L21.9908 127.596C21.9484 127.594 21.9045 127.588 21.8587 127.577C20.5422 127.26 19.2361 126.77 17.945 126.358C16.7467 125.975 15.4004 125.735 14.2804 125.158C14.1942 125.114 14.2424 124.994 14.3263 124.988C15.5852 124.901 16.9519 125.267 18.1861 125.483L18.6498 125.565C19.4265 125.701 20.2205 125.848 20.9935 126.04C21.0215 125.782 21.1661 125.522 21.3719 125.37C23.6368 123.693 23.4069 120.306 23.6491 117.81L23.8288 115.955C24.1447 112.711 24.4789 109.467 24.9868 106.246C25.0139 106.074 25.2801 106.124 25.2811 106.286C25.3073 110.278 25.0059 114.252 24.8548 118.237L24.8313 118.891C24.7478 121.35 24.6823 123.904 23.1328 125.797C23.3494 125.67 23.6424 125.67 23.8179 125.878C24.0336 126.135 24.1582 126.423 24.1543 126.706C25.5545 126.119 26.9486 125.517 28.3359 124.902C32.7962 122.928 37.1629 120.717 41.4142 118.326C41.8717 118.068 42.3065 118.27 42.5328 118.61L42.5654 118.605C42.5709 118.604 42.5764 118.603 42.5822 118.603L42.6145 118.603H42.6181C43.2165 118.273 44.0318 118.508 44.5453 118.987C44.5605 119.002 44.5734 119.017 44.5869 119.032C45.2371 118.741 45.8441 118.347 46.395 117.848C47.5224 116.826 48.4774 115.563 49.3098 114.297C50.8429 111.964 52.1451 109.37 54.2161 107.451C55.8987 105.891 57.9848 104.92 60.1732 104.31C60.1641 104.246 60.1882 104.178 60.2331 104.133C60.3453 104.017 60.425 103.977 60.5705 104.047C60.5821 104.053 60.5888 104.06 60.5938 104.069L60.8074 103.705C60.9237 103.506 61.0434 103.307 61.085 103.255C61.3335 102.942 61.5895 102.632 61.8488 102.328C62.2893 101.813 62.7904 101.306 63.3714 100.949C64.643 100.168 65.9803 100.61 67.2876 101.037C68.0772 101.294 68.8643 101.561 69.653 101.823L69.7345 101.85C70.3229 102.038 71.0102 102.204 71.2737 102.826C71.3776 103.073 71.3934 103.328 71.3452 103.577C76.9303 102.157 83.133 102.81 88.5827 104.476C88.7921 104.54 89.0008 104.712 89.0448 104.937C89.669 108.139 89.9474 111.421 89.6648 114.676C89.4213 117.486 88.798 120.241 87.6244 122.813L87.5579 122.958C86.4542 125.343 84.7063 128.282 82.0359 129.029C80.4236 129.48 78.64 129.214 76.996 129.132C75.3977 129.051 73.7646 129.04 72.1813 128.789C70.7717 128.564 69.5358 127.933 68.6648 126.787C67.9135 125.798 67.5179 124.604 67.1929 123.416C67.045 123.463 66.897 123.513 66.7524 123.569C66.1399 123.809 65.6212 124.194 65.1516 124.649C64.1609 125.608 63.3922 126.773 62.3557 127.688C61.4174 128.516 60.3478 129.161 59.2008 129.657C56.8243 130.683 54.2746 131.093 51.7606 131.637L51.5852 131.675C49.6926 132.09 47.7608 132.6 46.0902 133.585C46.0576 133.875 45.9254 134.148 45.7136 134.327C46.0082 134.603 46.133 135.041 45.8741 135.452C45.1509 136.599 43.9051 137.252 42.7868 137.986L42.7141 138.033C41.6139 138.763 40.5041 139.477 39.3853 140.178C37.1109 141.601 34.789 142.946 32.4343 144.232C28.6469 146.3 24.7783 148.25 20.8396 150.021C21.0761 151.183 20.9896 152.382 21.1673 153.552L21.1946 153.719C21.2705 154.153 21.168 154.517 20.8687 154.801L20.837 154.83L20.8375 154.825L20.8094 154.851L20.8001 154.86L20.8032 154.857C20.7687 154.889 20.7331 154.918 20.6968 154.943L20.6506 154.973C20.3624 155.148 19.9912 155.145 19.6961 154.991L19.6623 154.973L19.6056 154.94C19.2157 154.716 18.9467 154.161 19.1085 153.719C19.5062 152.635 19.6563 151.477 20.0235 150.385L19.7322 150.515L19.3483 150.682C15.1959 152.477 10.5834 153.988 6.05907 152.765C4.05997 152.224 2.19152 151.08 1.19126 149.215C0.207045 147.381 0.0679153 145.251 0.0156376 143.21C-0.0488576 140.691 0.0862834 138.134 0.418567 135.637C0.64164 133.961 0.911423 132.253 1.32748 130.594C1.11347 130.405 0.956138 130.134 0.914581 129.799C0.718187 128.215 1.06194 126.567 1.2723 124.991C1.47783 123.452 1.70498 121.916 1.9618 120.385C2.48034 117.293 3.08282 114.207 3.7842 111.151C5.03255 105.712 6.681 100.369 8.66564 95.1549L8.83943 94.7011C10.6733 89.9346 12.7967 85.2704 15.7534 81.0831C17.1678 79.0793 18.663 77.2633 20.6615 75.8196C22.5338 74.4674 24.6457 73.4933 26.8252 72.7486C29.0071 72.004 31.2496 71.5053 33.5318 71.1944C35.8495 70.8794 38.296 70.6858 40.4581 69.7358C40.1846 69.2455 40.4193 68.5839 40.8796 68.2797C42.4287 67.2566 43.8612 65.9259 45.2496 64.6959ZM94.8386 109.182C94.9034 109.084 95.0572 109.146 95.0289 109.262C94.2759 112.348 93.5686 115.439 93.1065 118.583C92.2729 124.258 92.4258 130.007 92.494 135.725L92.4973 136.02C92.533 139.1 92.5812 142.179 92.6835 145.258C92.735 146.813 92.8364 148.383 92.7807 149.94C92.7508 150.785 92.5256 151.583 92.4458 152.418C92.3759 153.147 92.4383 153.888 92.4732 154.618C92.4965 155.104 91.7792 155.083 91.731 154.618L91.6687 154.017C91.5872 153.255 91.4875 152.499 91.2373 151.771C90.9373 150.894 90.7935 150.034 90.6896 149.114C90.53 147.704 90.4594 146.281 90.3979 144.861L90.3555 143.879C90.0987 137.946 90.1078 131.986 90.5234 126.059L90.5541 125.636C90.9655 120.035 91.6803 113.982 94.8386 109.182ZM78.7788 73.8756C78.5818 73.7942 78.6508 73.4966 78.8685 73.549L79.265 73.6429C82.1689 74.3386 85.0197 75.0916 87.7308 76.3856C90.4428 77.6797 92.7392 79.6129 94.5635 81.9891C98.1099 86.6085 99.5843 92.2219 100.748 97.8311C102.04 104.063 103.218 110.318 104.522 116.548L104.765 117.709C105.971 123.511 107.111 129.317 107.95 135.189L108.011 135.615C108.857 141.653 109.367 147.9 108.443 153.953C108.26 155.15 106.267 154.852 106.345 153.669C106.569 150.248 106.73 146.846 106.575 143.417C106.419 139.988 106.097 136.574 105.617 133.175C105.214 130.315 104.613 127.49 104.08 124.652L103.997 124.204C103.55 121.791 103.091 119.38 102.632 116.968L101.947 113.357C100.92 107.952 99.8727 102.541 98.6892 97.1695L98.6185 96.8529C97.4608 91.685 95.7536 86.271 92.2795 82.1669C88.7547 78.0022 83.7082 75.9044 78.7788 73.8756ZM65.9686 128.694C66.0534 128.505 66.3501 128.525 66.4416 128.694C66.7989 129.352 66.838 130.193 66.9062 130.937L66.9128 131.014C66.9992 131.921 67.0749 132.832 67.1214 133.742C67.2095 135.471 67.2519 137.196 67.2469 138.927C67.2411 140.7 67.2054 142.471 67.1098 144.242L67.084 144.716C66.9967 146.255 66.8496 147.971 66.1182 149.316C65.8523 149.805 65.1292 149.662 64.9755 149.167C64.471 147.547 64.7303 145.627 64.8599 143.969L64.9597 142.675C65.0594 141.381 65.1541 140.086 65.2298 138.791C65.3328 137.018 65.4176 135.243 65.4999 133.47C65.5265 132.894 65.5547 132.318 65.5855 131.742L65.632 130.877C65.6719 130.155 65.6686 129.362 65.9686 128.694ZM9.24477 130.989L9.46809 130.774C10.1537 130.103 11.02 129.07 12.0336 129.134C12.4378 129.16 12.6953 129.494 12.6115 129.892C12.4325 130.742 11.5653 131.182 10.9412 131.701C10.2574 132.27 9.61296 132.876 8.96983 133.49C8.39919 134.033 7.85039 134.593 7.31482 135.169L7.1146 135.386C6.92261 135.595 5.55541 136.832 5.70327 137.152L5.71125 137.167C5.75239 137.228 5.6839 137.312 5.61567 137.29C5.02532 137.104 5.06214 136.599 5.2853 136.086C5.71424 135.101 6.46524 134.19 7.12108 133.349C7.77518 132.511 8.48313 131.729 9.24477 130.989ZM68.108 106.294C67.6517 105.216 65.9703 105.239 65.0154 105.304C62.6109 105.466 60.0095 106.074 57.8702 107.197C55.6522 108.361 54.1582 110.228 52.8214 112.291L52.7589 112.388C51.456 114.413 50.2011 116.809 48.1609 118.201C47.1217 118.91 45.9083 119.558 44.6475 119.838C44.5609 119.991 44.4207 120.111 44.2368 120.154L44.1513 120.174C43.7923 120.253 43.2344 120.341 42.7525 120.289C42.7557 120.524 42.7532 120.758 42.7592 120.981C42.7761 121.621 42.7834 122.264 42.7834 122.904C42.7837 124.245 42.7116 125.589 42.7676 126.93C42.8172 128.116 42.9847 129.356 43.5546 130.416C43.9725 131.194 44.5241 131.709 45.19 132.201C46.8279 131.202 48.6801 130.595 50.5599 130.137C52.8334 129.584 55.1611 129.215 57.3829 128.465C58.4522 128.104 59.4801 127.632 60.4118 126.99C61.4 126.309 62.1554 125.386 62.9325 124.484L63.0539 124.345C63.8468 123.436 64.712 122.566 65.8323 122.073C66.7973 121.649 68.0689 121.573 68.9125 120.916C69.3538 120.572 69.3904 120.074 69.4369 119.563C68.8967 119.641 68.3249 119.517 67.7863 119.454L67.507 119.421C66.9976 119.361 66.5006 119.294 65.9994 119.164C65.9063 119.14 65.9063 119 65.9994 118.976C66.5912 118.823 67.1788 118.758 67.7863 118.687L67.9293 118.669C68.4786 118.597 69.0563 118.488 69.5948 118.609C69.6921 118.241 69.8317 117.89 70.0279 117.538C70.303 117.044 70.8232 116.484 70.8931 115.906C70.9147 115.734 70.8739 115.531 70.7925 115.379L70.7651 115.326C70.731 115.266 70.6903 115.203 70.6312 115.165C70.6246 115.173 70.6105 115.182 70.5806 115.191C70.1658 115.322 69.8035 115.118 69.6115 114.806C68.7961 114.907 67.906 114.873 67.1414 114.907L66.3684 114.944C65.5423 114.982 64.6787 114.999 63.9025 114.832C63.7936 114.808 63.7612 114.628 63.8701 114.582C64.8242 114.174 65.9819 114.044 67.0034 113.887C67.5744 113.8 68.1487 113.733 68.7213 113.656C69.1028 113.604 69.5067 113.519 69.9015 113.499C70.8914 112.267 70.3586 110.324 68.9806 109.793C68.4786 110.014 68.0273 109.886 67.4788 109.838C66.9319 109.792 66.3834 109.759 65.834 109.762C64.7328 109.767 63.5659 110.056 62.4754 109.931C62.2976 109.911 62.133 109.675 62.3092 109.532C63.1445 108.851 64.3405 108.629 65.4002 108.484L65.6196 108.455C65.9745 108.408 66.4066 108.34 66.8546 108.299C66.956 108.102 67.138 107.953 67.4106 107.915C67.4921 107.904 67.5735 107.898 67.655 107.891L67.6542 107.883C68.3199 107.851 68.2908 106.727 68.108 106.294ZM22.5136 127.331C22.5018 127.349 22.4889 127.367 22.4752 127.383L22.4541 127.407L22.5636 127.363L22.5136 127.331ZM79.7304 103.885C76.927 103.583 74.1203 103.647 71.3086 103.728C71.0834 104.463 70.3005 105.089 69.5425 105.113C70.1367 106.017 70.1974 107.24 69.781 108.199C70.6653 108.55 71.4275 109.183 71.8896 110.083C72.5312 111.33 72.4473 112.719 71.8131 113.873C72.3542 114.362 72.6741 115.158 72.6417 115.906C72.606 116.743 72.1082 117.456 71.6934 118.148C71.2463 118.896 71.2313 119.555 71.0942 120.393C70.8931 121.62 70.0653 122.363 69.0006 122.827L69.0571 123.05C69.3314 124.118 69.673 125.245 70.4576 126.026C71.4674 127.031 73.0332 127.022 74.3663 127.085L74.4303 127.088C75.6512 127.149 76.8722 127.22 78.0931 127.29L79.0082 127.341C80.4136 127.418 81.7633 127.427 82.9103 126.499C84.7836 124.983 86.0677 122.474 86.8806 120.253C88.586 115.591 88.6068 110.476 87.8239 105.62C85.1975 104.774 82.4731 104.179 79.7304 103.885ZM56.4182 111.619L56.4388 111.62C57.0159 111.686 57.4125 112.153 57.5537 112.707C57.7588 113.513 57.6582 114.241 58.1517 114.968C58.6594 115.716 58.9714 116.314 59.0454 117.238C59.0753 117.619 59.062 117.998 59.1468 118.369L59.2074 118.63C59.2731 118.908 59.3263 119.176 59.2939 119.474C59.264 119.746 59.1318 119.958 58.8585 120.045C57.9687 120.33 57.2816 119.675 57.0517 118.845C56.853 118.13 57.1183 117.276 56.8381 116.604C56.6828 116.231 56.3965 115.92 56.2348 115.544C56.0745 115.173 55.994 114.784 55.9683 114.38C55.9195 113.615 56.5961 112.697 56.2186 112.003C56.1383 111.856 56.2293 111.614 56.4182 111.619ZM44.5976 103.728C45.2002 103.606 45.8839 103.326 46.4781 103.558C46.7836 103.678 46.9346 104.05 46.6764 104.31C46.2284 104.759 45.5771 104.783 44.9736 104.89L44.9204 104.899C44.2068 105.031 43.4919 105.156 42.7761 105.275C41.4291 105.498 40.0791 105.695 38.7243 105.862C37.3329 106.034 35.9376 106.188 34.5402 106.303L33.9993 106.348C32.8189 106.442 31.5908 106.513 30.4327 106.333C30.2644 106.306 30.2915 106.061 30.4327 106.019C31.7014 105.635 33.0932 105.531 34.4049 105.369C35.7994 105.196 37.1916 105.014 38.5801 104.797C39.9664 104.58 41.3509 104.348 42.7303 104.091C43.3538 103.976 43.9763 103.854 44.5976 103.728ZM66.3418 102.496C65.8124 102.308 65.2306 102.032 64.658 102.124C63.6698 102.284 62.7904 103.247 62.0083 103.88L62.4006 103.804C64.4103 103.418 67.0715 103.002 68.7587 104.279C68.7629 104.271 68.7662 104.265 68.7712 104.257C68.9075 104.05 69.0654 103.889 69.2374 103.712C69.2541 103.696 69.2699 103.681 69.2857 103.665L69.3779 103.566L69.166 103.492C68.7105 103.332 68.1711 103.124 68.0863 103.093L68.0805 103.091C67.4996 102.894 66.9195 102.701 66.3418 102.496ZM49.8305 60.3915C49.7478 59.3285 51.4031 59.3376 51.4852 60.3915C51.664 62.6937 51.1458 64.9743 50.0304 66.9923C50.0221 67.0064 50.0131 67.0197 50.0045 67.0338C50.7021 67.397 51.4078 67.7444 52.129 68.0561C53.0517 68.4542 53.9918 68.8166 54.9487 69.1241C55.8142 69.4025 56.8806 69.5122 57.6083 70.0915C59.1426 71.3133 58.5663 73.8482 58.2711 75.4913L58.2251 75.7507C58.078 76.5959 57.9717 77.4636 58.3284 78.2748C58.7092 79.1416 59.4792 79.7841 60.1666 80.405L60.3054 80.5304C60.9138 81.0848 61.6086 81.758 62.0557 82.5094C62.463 81.6674 63.0182 80.9793 63.6058 80.2038C64.0246 79.6511 63.7263 79.4691 63.4254 78.9289C63.1353 78.4094 62.994 77.8551 63.0846 77.2616C63.2517 76.1662 64.1277 75.375 64.9995 74.7807C66.0285 74.0793 67.1779 73.559 68.2418 72.9065C70.4285 71.5651 72.5578 70.0317 74.4769 68.3287C74.53 68.2822 74.6215 68.3437 74.5791 68.4077C73.0631 70.7124 71.2862 72.7029 69.102 74.3934C68.2168 75.0791 67.2868 75.6476 66.3501 76.2452L66.0808 76.4172C65.7043 76.6607 65.2356 76.9865 65.0652 77.4013C64.8948 77.8177 65.2589 78.1327 65.4558 78.4784C66.0792 79.5747 65.7783 80.5978 65.0395 81.5278L65.0045 81.571C64.2698 82.4761 63.713 83.3172 63.447 84.4733C62.8752 86.9575 63.6714 89.544 64.5059 91.8753L64.5391 91.9675C64.9904 93.2242 65.47 94.4717 65.8623 95.7483L65.9695 96.1015C66.3252 97.2759 66.6161 98.4353 66.2172 99.643C66.0817 100.054 65.5215 100.151 65.2888 99.7643C64.4676 98.4004 64.2624 96.7598 63.7479 95.2613C63.2459 93.8002 62.6699 92.3657 62.1854 90.8987C61.5612 89.0104 61.144 86.9775 61.3709 84.9961C61.3642 84.9844 61.3567 84.9736 61.3509 84.9612L61.1922 84.6138C60.7592 83.6738 60.3403 82.8526 59.5524 82.1029C58.7311 81.3209 57.8393 80.6285 57.1927 79.6819C55.7885 77.6257 56.6569 75.3384 56.8265 73.0902L56.846 72.8143C56.8768 72.3472 56.8937 71.7131 56.5886 71.3898C56.2455 71.0265 55.4408 70.9335 54.9855 70.7722C53.8089 70.3558 52.6494 69.8713 51.5451 69.2887C50.4938 68.7343 49.4755 68.1226 48.5274 67.4045L48.0469 67.0438C47.2886 66.472 46.5024 65.847 45.9942 65.0691C45.9356 64.9793 46.0352 64.8347 46.1414 64.8771C46.9898 65.2211 47.7648 65.7689 48.5585 66.2451C48.5709 66.216 48.5852 66.1869 48.6015 66.157C49.5835 64.3809 49.9874 62.4128 49.8305 60.3915ZM76.9287 72.5633C77.267 71.6374 78.807 71.7089 78.7463 72.8093C78.699 73.6554 78.3399 74.4184 78.0116 75.1863L77.9759 75.2686C77.6368 76.069 77.2453 76.8203 76.7766 77.5534C75.8815 78.9546 74.8326 80.2553 73.7122 81.4837C72.6966 82.5966 71.3635 83.2773 69.8276 83.1643C69.1801 83.1161 68.5268 82.9515 67.9592 82.6282C67.286 82.2442 66.5546 81.0915 65.6952 81.3707C65.6121 81.3981 65.534 81.276 65.6063 81.2186C66.5978 80.4199 67.724 81.6583 68.674 81.9567C70.106 82.4063 71.5746 81.9093 72.4955 80.7524C73.4579 79.5447 74.343 78.1925 75.1517 76.8777C75.5623 76.2103 75.9363 75.5171 76.2605 74.8032C76.5863 74.0818 76.6611 73.2988 76.9287 72.5633ZM74.6215 66.8618C74.5799 66.7338 74.7387 66.6125 74.8517 66.6856C75.5033 67.1095 76.0685 67.6705 76.6694 68.1617C77.3368 68.7069 78.0091 69.2405 78.6915 69.7666C79.6863 70.5337 78.5327 71.9449 77.6567 71.1072C76.4583 69.9619 75.1459 68.4634 74.6215 66.8618ZM71.0418 62.3779C71.307 61.3564 72.8736 61.7778 72.6451 62.7868L72.6376 62.8175C72.2054 64.4839 72.8213 66.1803 74.1361 67.2607L74.1843 67.3006C75.0154 67.9655 73.8377 69.1291 73.0141 68.47C71.2164 67.0313 70.4684 64.5887 71.0418 62.3779Z" fill="black"/>
    <path fill-rule="evenodd" clip-rule="evenodd" d="M64.033 9.47046C84.9067 10.1324 86.1658 20.0643 86.1658 36.7204C86.1658 53.3763 75.3371 63.8726 71.3502 65.7052C67.3633 67.5378 56.864 75.4094 47.3893 71.7824C37.9146 68.1545 40.6584 52.828 40.6584 46.2427C40.6584 39.6575 43.1589 8.80847 64.033 9.47046Z" fill="#EDB98A"/>
    <path fill-rule="evenodd" clip-rule="evenodd" d="M43.8572 35.9039C48.1732 18.2749 56.0522 9.67372 67.4945 10.1006C84.6572 10.7408 84.476 28.264 83.3997 26.6662C82.6958 25.6223 77.7705 21.9758 68.6232 15.7265L68.058 15.3407L43.8572 35.9039Z" fill="#DBC69D"/>
    <path fill-rule="evenodd" clip-rule="evenodd" d="M72.5005 60.2353C68.6674 62.3788 64.2782 62.4619 60.155 61.113C57.6819 60.306 55.4145 59.0584 53.2925 57.5666C51.4465 56.2675 49.799 54.8264 48.1667 53.2971C46.8228 50.3285 45.6261 47.3653 45.0657 44.1353C44.5636 41.236 44.497 38.2255 45.0795 35.3318C49.3873 31.7823 53.6685 28.2036 57.944 24.614C60.1217 22.7857 62.3043 20.9673 64.5134 19.1779C65.6354 18.2693 66.7466 17.3468 67.8645 16.4341C68.049 16.2841 68.2318 16.134 68.4164 15.984C70.7235 17.6761 73.1978 19.1266 75.4892 20.8463C76.6885 21.7479 77.8554 22.7078 78.9658 23.7177C79.5484 24.2471 80.1169 24.7931 80.6721 25.353C81.1799 25.8643 81.6694 26.5977 82.3892 26.791C82.4873 26.8172 82.5804 26.8227 82.6676 26.8102C83.6301 35.2511 84.3141 44.3659 80.1909 52.0316C78.3923 55.3757 75.8416 58.3653 72.5005 60.2353ZM47.5635 63.3379C47.0357 62.8533 47.8224 62.0688 48.348 62.5516C51.6495 65.5811 55.9657 67.1868 60.3254 67.9298C61.0285 68.0504 60.7293 69.1208 60.0303 69.0012C55.4787 68.2257 51.0049 66.4953 47.5635 63.3379ZM43.6018 67.9855C42.9717 67.6464 43.5326 66.6873 44.1617 67.0256C46.7339 68.4077 49.5552 69.125 52.4169 69.6104C53.1207 69.7292 52.8205 70.7997 52.122 70.6817C49.1631 70.1805 46.2598 69.4134 43.6018 67.9855ZM54.0704 21.1647C56.2047 19.246 58.4986 17.4205 60.9213 15.88C63.3731 14.3212 66.0518 13.389 68.9458 13.3668C68.743 13.5294 68.551 13.71 68.3549 13.8779C67.8088 14.3462 67.2636 14.8172 66.7184 15.2867C65.6288 16.2272 64.5358 17.1662 63.4595 18.1222C61.3402 20.0059 59.2141 21.88 57.0993 23.7679C53.0344 27.3966 49.057 31.1043 45.1653 34.9193C45.1863 34.8262 45.2085 34.7331 45.2305 34.6402C46.5189 29.2498 50.0235 24.8029 54.0704 21.1647ZM70.8017 13.6017C70.8158 13.56 70.8249 13.5196 70.8308 13.4808C76.3852 14.206 81.0245 18.2999 82.5579 23.6902C82.4249 23.8764 82.351 24.0973 82.3792 24.3319C82.3934 24.4501 82.4067 24.5696 82.4208 24.6876C82.2305 24.4989 82.0352 24.3223 81.8689 24.1542C81.3154 23.593 80.7486 23.0468 80.166 22.5148C78.9741 21.4271 77.7374 20.4103 76.4334 19.4615C74.1661 17.811 71.7118 16.294 69.0081 15.5021C69.186 15.3563 69.3638 15.2104 69.5425 15.0659C70.0761 14.631 70.5715 14.2727 70.8017 13.6017ZM80.7594 7.83768C77.3493 4.10477 72.6268 1.37079 67.6534 0.420568C62.9043 -0.488016 57.9883 0.110809 53.5019 1.87645C44.1141 5.57179 36.7069 13.6975 33.2384 23.1136C31.2163 28.5997 30.5534 34.6136 31.161 40.4206C31.7655 46.201 33.5032 52.1707 36.6653 57.0887C36.9552 57.5391 37.2727 57.9705 37.6056 58.3885C37.4572 60.0865 36.8913 61.7504 36.001 63.1983C35.9531 63.2756 35.9026 63.352 35.8528 63.4285C34.941 64.1125 33.9953 64.7541 33.0721 65.4165C32.272 65.9908 31.4801 66.5793 30.7277 67.2151C30.0175 67.8151 29.1927 68.4842 28.7119 69.2946C28.3179 69.9578 28.157 70.8604 28.6949 71.4929C29.343 72.2558 30.4411 71.9866 31.319 71.9866C31.3941 71.9866 31.4692 71.9882 31.5442 71.9891C31.8078 72.1553 32.0794 72.3049 32.3424 72.4445C35.0011 73.8566 37.6694 75.2529 40.3405 76.6417C45.6606 79.411 50.9584 82.2908 56.3878 84.8399C58.9037 86.0218 61.597 87.0557 64.4153 87.0515C67.0583 87.0474 69.4478 85.9952 71.5115 84.3969C73.8635 82.5751 75.8308 80.2621 77.7382 77.9948C78.5012 77.088 79.2492 76.1696 79.9823 75.2387C81.3919 74.7675 82.7898 74.6304 84.0456 75.5388C85.0546 76.2685 86.3828 75.2762 86.4069 74.1816C86.4152 73.7926 86.3986 73.4094 86.3562 73.0313C86.1043 70.6975 84.964 68.5856 83.6799 66.6266C82.9785 65.5562 82.2388 64.504 81.4957 63.4617C81.3212 63.2165 81.1492 62.9705 80.9821 62.7204C83.9683 58.3162 86.337 53.4334 87.7932 48.3307C89.3233 42.9615 89.8436 37.3934 89.502 31.8296C88.9775 23.3025 86.6421 14.2781 80.7594 7.83768Z" fill="black"/>
    <path fill-rule="evenodd" clip-rule="evenodd" d="M70.4052 54.1697C69.471 53.7882 68.6374 53.1532 68.0281 52.3411C67.8162 52.059 67.7614 51.7609 67.8054 51.4883C67.8561 51.1819 68.0373 50.904 68.2841 50.7178C68.5326 50.5309 68.8435 50.4387 69.1435 50.4857C69.4037 50.5265 69.6638 50.6692 69.8691 50.9652L69.9115 51.0244C70.2738 51.5143 70.7459 51.9163 71.2845 52.1755C71.8031 52.4252 72.3824 52.5418 72.9825 52.474C74.1261 52.345 74.9132 51.7271 75.7509 50.8881C75.8548 50.7821 75.9587 50.6729 76.0626 50.5619C76.1291 50.4612 76.2205 50.3966 76.3219 50.3626C76.4341 50.325 76.5621 50.3271 76.6785 50.3679C76.7915 50.4071 76.8921 50.4817 76.9594 50.5807C77.0242 50.675 77.0608 50.7913 77.0483 50.9252C76.9719 51.7947 76.5172 52.5708 75.8715 53.1798C75.1534 53.8572 74.2026 54.3251 73.3074 54.4897C72.3209 54.67 71.3152 54.5404 70.4052 54.1697ZM73.7729 40.7552C74.8226 41.3928 76.4217 42.8797 75.2922 44.4606C73.9632 45.8545 72.0499 44.2562 71.1066 43.5335C70.2331 42.9733 69.2507 44.414 70.0619 45.0681C76.8746 50.1103 79.6398 40.9219 74.3031 40.0054C73.7164 39.9044 73.4978 40.5579 73.7729 40.7552ZM61.5628 34.8899C61.6792 33.4511 63.8709 33.1244 64.0894 34.5481C64.2839 35.8234 64.0545 36.9949 63.4794 38.1431C62.9309 39.24 61.5504 38.7283 61.4465 37.7295C61.306 36.3905 61.4905 35.7848 61.5628 34.8899ZM78.2493 34.2527C78.5552 33.8527 78.9965 33.5795 79.5251 33.7339C81.1765 34.2164 80.6903 36.5604 80.1102 37.7014C79.7944 38.321 78.7762 38.4781 78.3158 37.9325C77.5653 37.0429 77.2054 35.2662 78.1595 34.3899C78.1853 34.3446 78.2144 34.2988 78.2493 34.2527ZM63.4561 28.5943L63.7171 28.5486C64.525 28.4091 65.5281 28.275 66.0991 28.9237C66.4016 29.2676 66.5064 29.907 66.0991 30.2362C65.3835 30.8155 64.5914 30.591 63.7337 30.6401C63.0264 30.6806 62.3466 30.7977 61.6659 30.9922C60.1715 31.4192 58.9539 32.1985 57.6775 33.0542C57.51 33.1665 57.3391 32.9524 57.4189 32.7958C58.1557 31.3534 59.5831 30.1686 61.0135 29.4463C61.7764 29.0608 62.6117 28.741 63.4561 28.5943ZM76.7433 27.9482L76.9428 27.989C79.1162 28.4432 81.9395 29.3503 82.9692 31.484C83.0083 31.7857 82.9668 31.8504 82.9327 31.8927L82.9219 31.9067C82.8945 31.9428 82.872 31.9925 82.7415 32.0336C82.705 32.0249 82.6684 32.0157 82.631 32.006C82.1597 31.8825 81.7857 31.7122 81.425 31.5356L81.0327 31.3427C80.5781 31.1199 80.1202 30.9052 79.634 30.7467C78.5967 30.4086 77.5304 30.1704 76.4466 30.0432C76.2122 30.0156 75.9862 29.9364 75.8075 29.8007C75.6387 29.6719 75.5091 29.4935 75.4501 29.2563C75.3736 28.9495 75.3952 28.7171 75.5606 28.4403C75.6845 28.2323 75.8615 28.0882 76.0651 28.0055C76.2721 27.9211 76.5089 27.9012 76.7433 27.9482Z" fill="black"/>
    <path fill-rule="evenodd" clip-rule="evenodd" d="M86.2114 41.6016C84.5242 43.3444 81.7076 43.8446 79.4627 42.9099C73.698 40.5024 76.5197 32.9937 80.9654 30.9773C81.5206 30.8389 82.2619 30.5106 82.9385 30.4361C83 30.4061 83.1329 30.493 83.2942 30.4109C88.1961 30.9579 89.3123 38.5643 86.2114 41.6016ZM67.6192 42.0476C65.7267 44.5567 62.2077 45.3307 59.3337 44.1643C53.6544 41.9287 55.6686 35.2704 59.554 32.66C67.7621 29.5772 71.1515 37.4213 67.6192 42.0476ZM55.3084 36.4882C55.3032 36.4857 55.2979 36.4844 55.2925 36.4819C55.3225 36.4687 55.3525 36.4555 55.3824 36.4421C55.3727 36.4675 55.3621 36.4926 55.3526 36.518C55.3379 36.5079 55.325 36.4961 55.3084 36.4882ZM90.1185 33.7761C89.6548 33.777 88.9857 33.8531 88.6026 34.1744C87.6559 30.9857 84.1652 28.0347 81.1283 30.1865C78.7371 30.9552 76.9627 32.66 75.9545 34.9263C74.136 33.8452 71.277 34.3068 69.7003 35.7365C68.6681 32.3258 66.1265 31.1315 63.1012 30.9552C59.8 30.4147 56.5092 33.6197 55.4825 36.1909C54.6287 36.0938 53.353 35.8222 52.5498 36.3489C47.3371 34.9824 38.2236 34.229 37.1638 34.9883C36.4087 35.2779 35.9942 37.0598 37.049 37.1559C37.9683 37.0254 36.9417 35.8503 37.8684 35.7221C42.8053 35.4161 47.598 36.41 52.4827 36.827C52.9189 37.4135 54.3279 37.6096 55.0797 37.374C53.8957 41.7356 56.4515 44.703 60.2812 45.5918C66.2113 46.9534 71.37 41.651 69.8192 36.1358C71.6161 35.2425 73.6822 35.2808 75.6387 35.7514C72.3691 47.7807 91.7509 47.2409 88.7231 34.5867C90.7377 35.5883 91.1757 33.9782 90.1185 33.7761Z" fill="black"/>
</svg>
